<?xml version="1.0" standalone="no"?>
<!DOCTYPE svg PUBLIC "-//W3C//DTD SVG 20010904//EN"
 "http://www.w3.org/TR/2001/REC-SVG-20010904/DTD/svg10.dtd">
<svg version="1.0" xmlns="http://www.w3.org/2000/svg"
 width="512.000000pt" height="512.000000pt" viewBox="0 0 512.000000 512.000000"
 preserveAspectRatio="xMidYMid meet">
<metadata>
Created by potrace 1.14, written by Peter Selinger 2001-2017
</metadata>
<g transform="translate(0.000000,512.000000) scale(0.100000,-0.100000)"
fill="#000000" stroke="none">
<path d="M2155 4868 c-26 -20 -27 -25 -21 -77 3 -31 8 -65 10 -76 2 -11 7 -44
11 -73 4 -29 16 -63 27 -77 40 -51 128 -19 128 45 0 15 -9 76 -20 135 -15 88
-24 113 -42 127 -31 24 -60 22 -93 -4z"/>
<path d="M2884 4880 c-32 -13 -34 -18 -48 -101 -3 -19 -10 -58 -16 -88 -15
-78 -12 -109 10 -131 26 -26 81 -26 105 0 11 13 25 59 36 127 25 144 24 157
-7 182 -29 22 -46 25 -80 11z"/>
<path d="M1493 4648 c-12 -6 -27 -23 -34 -39 -11 -27 -7 -38 41 -132 64 -125
83 -147 126 -147 36 0 74 37 74 72 0 21 -104 220 -123 236 -20 17 -61 22 -84
10z"/>
<path d="M3560 4647 c-16 -8 -47 -52 -83 -117 -47 -85 -57 -111 -53 -139 6
-40 30 -60 73 -61 38 0 57 23 122 143 55 102 58 129 19 162 -34 28 -43 30 -78
12z"/>
<path d="M933 4210 c-25 -10 -43 -39 -43 -71 0 -39 183 -209 226 -209 33 0 74
42 74 76 0 26 -26 56 -145 166 -44 40 -78 52 -112 38z"/>
<path d="M4035 4134 c-53 -48 -98 -97 -101 -111 -13 -52 37 -103 88 -90 13 4
65 45 116 93 103 96 114 123 67 169 -41 42 -66 33 -170 -61z"/>
<path d="M2410 4069 c-25 -4 -63 -10 -85 -14 -60 -10 -212 -61 -285 -97 -322
-156 -568 -459 -654 -803 -20 -81 -25 -115 -32 -220 -4 -49 -8 -92 -10 -94 -2
-2 -243 -3 -536 -3 -504 0 -536 -1 -593 -20 -93 -31 -166 -105 -199 -203 -15
-44 -16 -126 -16 -785 1 -809 -1 -793 62 -873 44 -57 64 -72 128 -104 l55 -27
735 -1 c791 -2 783 -2 796 49 5 23 9 24 105 25 54 1 99 -2 100 -6 0 -4 2 -47
4 -96 5 -107 32 -201 82 -285 94 -159 284 -272 469 -281 193 -8 396 97 504
262 48 75 88 191 93 272 l4 60 854 0 c470 1 870 5 889 9 88 21 166 87 209 176
l26 55 0 770 0 770 -24 47 c-31 64 -95 126 -161 157 l-55 26 -548 1 c-301 1
-549 3 -552 5 -2 2 -6 45 -9 94 -10 159 -47 305 -111 442 -35 75 -56 94 -98
90 -21 -2 -36 11 -85 78 -47 61 -58 83 -51 97 20 37 10 66 -41 114 -56 53
-165 135 -213 160 -131 68 -252 116 -329 129 -18 3 -40 8 -49 11 -56 17 -304
25 -379 13z"/>
<path d="M521 3594 c-26 -33 -27 -65 -3 -92 20 -24 216 -112 248 -112 29 0 63
29 69 58 10 55 -18 77 -185 147 -76 32 -103 32 -129 -1z"/>
<path d="M4416 3572 c-114 -51 -140 -75 -131 -123 6 -28 42 -58 70 -59 12 0
70 22 130 48 117 51 144 76 132 123 -19 71 -60 73 -201 11z"/>
</g>
</svg>
